<svg xmlns="http://www.w3.org/2000/svg" viewBox="0 0 100 100">
  <rect width="100" height="100" rx="20" fill="#1e3a5f"/>
  <path d="M50 20 C50 20 30 35 30 55 C30 66 39 75 50 75 C61 75 70 66 70 55 C70 35 50 20 50 20Z" fill="none" stroke="white" stroke-width="4" stroke-linecap="round"/>
  <path d="M42 50 C42 50 38 58 38 62 C38 64.5 39.8 66.5 42 66.5 C44.2 66.5 46 64.5 46 62 C46 58 42 50 42 50Z" fill="#2d9b4e"/>
  <path d="M55 42 C55 42 52 48 52 51 C52 53 53.3 54.5 55 54.5 C56.7 54.5 58 53 58 51 C58 48 55 42 55 42Z" fill="#2d9b4e"/>
</svg>
